<?xml version="1.0" standalone="no"?>
<!DOCTYPE svg PUBLIC "-//W3C//DTD SVG 20010904//EN"
 "http://www.w3.org/TR/2001/REC-SVG-20010904/DTD/svg10.dtd">
<svg version="1.0" xmlns="http://www.w3.org/2000/svg"
 width="200.000000pt" height="200.000000pt" viewBox="0 0 200.000000 200.000000"
 preserveAspectRatio="xMidYMid meet">

<g transform="translate(0.000000,200.000000) scale(0.100000,-0.100000)"
fill="#FFFFFF" stroke="none">
<path d="M885 1971 c-50 -22 -87 -65 -111 -126 l-17 -47 121 -121 122 -122
121 121 121 121 -12 42 c-14 52 -63 109 -115 132 -55 25 -175 25 -230 0z"/>
<path d="M380 1762 c-59 -28 -125 -102 -145 -161 -20 -60 -16 -97 14 -167 l21
-47 286 6 287 5 31 31 31 32 -135 133 c-155 152 -210 186 -299 186 -32 0 -71
-8 -91 -18z"/>
<path d="M1448 1767 c-20 -8 -58 -30 -85 -50 -26 -19 -280 -269 -564 -554
-565 -567 -574 -578 -574 -688 1 -124 123 -245 248 -245 109 0 112 3 703 594
600 601 599 599 599 717 0 56 -5 73 -30 114 -17 27 -52 65 -79 84 -43 31 -58
36 -115 38 -38 2 -82 -3 -103 -10z"/>
<path d="M200 1244 c-71 -19 -123 -54 -157 -106 -26 -38 -28 -50 -28 -134 0
-87 2 -95 30 -136 35 -48 117 -99 155 -96 18 2 94 73 264 246 l239 242 -224
-1 c-164 0 -239 -4 -279 -15z"/>
<path d="M1540 997 l-245 -249 245 4 c221 4 250 7 301 26 88 35 136 99 146
197 11 108 -34 203 -116 244 -79 40 -63 51 -331 -222z"/>
<path d="M1129 584 l-34 -36 135 -131 c152 -148 201 -179 296 -185 48 -3 70 0
102 17 49 25 105 78 129 124 26 48 23 150 -5 205 l-22 42 -283 0 -283 0 -35
-36z"/>
<path d="M876 331 l-119 -120 18 -48 c76 -203 374 -203 450 0 l18 48 -119 120
c-65 65 -121 119 -124 119 -3 0 -59 -54 -124 -119z"/>
</g>
</svg>
